# xmcd
#
# Track frame offsets:
#	150
#	11375
#	25813
#	47613
#	60200
#	84538
#	98800
#	119213
#	132025
#	149413
#	168250
#	181975
#	205463
#	220113
#	233800
#	251175
#	267288
#	280800
#	303113
#
# Disc length: 4257 seconds
#
# Revision: 1
# Processed by: cddbd v1.5.2PL0 Copyright (c) Steve Scherf et al.
# Submitted via: audiograbber 1.82.02
#
DISCID=08109f13
DTITLE=Peps Persson - The Week Came To Chicago
DYEAR=196
DGENRE=Blues
TTITLE0=Apollo 15
TTITLE1=You're Part Of It
TTITLE2=There's Tears In Your Eyes
TTITLE3=You Lovin' Eases Your Mind
TTITLE4=Carey Bell's Blues
TTITLE5=Born In The Country
TTITLE6=Five O'clock In The Morning
TTITLE7=Jump
TTITLE8=The War Is Over
TTITLE9=Mighty Joe
TTITLE10=The Way You Touch Me
TTITLE11=My Friend Needs A Shot
TTITLE12=Pep's Thing
TTITLE13=Gypsy Woman
TTITLE14=Slidin' To Sweden
TTITLE15=If There's A Train
TTITLE16=Key To The Highway
TTITLE17=Last Night
TTITLE18=Goin' Back
EXTD=
EXTT0=
EXTT1=
EXTT2=
EXTT3=
EXTT4=
EXTT5=
EXTT6=
EXTT7=
EXTT8=
EXTT9=
EXTT10=
EXTT11=
EXTT12=
EXTT13=
EXTT14=
EXTT15=
EXTT16=
EXTT17=
EXTT18=
PLAYORDER=
